<?xml version="1.0" encoding="UTF-8" standalone="no"?>
<!-- Created with Inkscape (http://www.inkscape.org/) -->

<svg
   xmlns:p="http://www.evolus.vn/Namespace/Pencil"
   xmlns:dc="http://purl.org/dc/elements/1.1/"
   xmlns:cc="http://creativecommons.org/ns#"
   xmlns:rdf="http://www.w3.org/1999/02/22-rdf-syntax-ns#"
   xmlns:svg="http://www.w3.org/2000/svg"
   xmlns="http://www.w3.org/2000/svg"
   xmlns:sodipodi="http://sodipodi.sourceforge.net/DTD/sodipodi-0.dtd"
   xmlns:inkscape="http://www.inkscape.org/namespaces/inkscape"
   width="64px"
   height="64px"
   id="svg3031"
   version="1.1"
   inkscape:version="0.48.4 r9939"
   sodipodi:docname="New document 3">
  <defs
     id="defs3033" />
  <sodipodi:namedview
     id="base"
     pagecolor="#ffffff"
     bordercolor="#666666"
     borderopacity="1.0"
     inkscape:pageopacity="0.0"
     inkscape:pageshadow="2"
     inkscape:zoom="5.5"
     inkscape:cx="32"
     inkscape:cy="32"
     inkscape:current-layer="layer1"
     showgrid="true"
     inkscape:document-units="px"
     inkscape:grid-bbox="true"
     inkscape:window-width="863"
     inkscape:window-height="685"
     inkscape:window-x="838"
     inkscape:window-y="295"
     inkscape:window-maximized="0" />
  <metadata
     id="metadata3036">
    <rdf:RDF>
      <cc:Work
         rdf:about="">
        <dc:format>image/svg+xml</dc:format>
        <dc:type
           rdf:resource="http://purl.org/dc/dcmitype/StillImage" />
        <dc:title></dc:title>
      </cc:Work>
    </rdf:RDF>
  </metadata>
  <g
     id="layer1"
     inkscape:label="Layer 1"
     inkscape:groupmode="layer">
    <g
       id="g2987"
       transform="matrix(0.97947214,0,0,0.98211624,-443.56892,-8.5760058)">
      <g
         transform="translate(455,11)"
         id="3e25b2c8058b412d8bce4ed032b9a1e9"
         p:def="Evolus.Common:SVGImage"
         p:type="Shape">
        <p:metadata>
          <p:property
             name="box">62,61</p:property>
          <p:property
             name="originalDim">32,32</p:property>
          <p:property
             name="svgXML">&lt;g xmlns=&quot;http://www.w3.org/2000/svg&quot;&gt;
&lt;g id=&quot;Desktop&quot;&gt;
	&lt;g&gt;
		&lt;path d=&quot;M23,30h-2c-1.104,0-2-0.896-2-2v-3h-6v3c0,1.104-0.896,2-2,2H9c-0.553,0-1,0.448-1,1c0,0.553,0.447,1,1,1h14    c0.553,0,1-0.447,1-1C24,30.448,23.553,30,23,30z M30.25,0H1.75C0.784,0,0,0.84,0,1.875v19.25C0,22.16,0.784,23,1.75,23h28.5    c0.966,0,1.75-0.84,1.75-1.875V1.875C32,0.84,31.216,0,30.25,0z M30,21H2V2h28V21z&quot;/&gt;
	&lt;/g&gt;
&lt;/g&gt;
&lt;/g&gt;</p:property>
        </p:metadata>
        <g
           transform="scale(1.9375,1.90625)"
           id="3673bf4cc68745918111692250713da5"
           p:name="container">
          <g
             id="g2991">
            <g
               id="1d54c3397d51455eb5d9441741eee762">
              <g
                 id="g2994">
                <path
                   id="path2996"
                   d="m 23,30 h -2 c -1.104,0 -2,-0.896 -2,-2 v -3 h -6 v 3 c 0,1.104 -0.896,2 -2,2 H 9 c -0.553,0 -1,0.448 -1,1 0,0.553 0.447,1 1,1 h 14 c 0.553,0 1,-0.447 1,-1 0,-0.552 -0.447,-1 -1,-1 z M 30.25,0 H 1.75 C 0.784,0 0,0.84 0,1.875 v 19.25 C 0,22.16 0.784,23 1.75,23 h 28.5 C 31.216,23 32,22.16 32,21.125 V 1.875 C 32,0.84 31.216,0 30.25,0 z M 30,21 H 2 V 2 h 28 v 19 z"
                   inkscape:connector-curvature="0" />
              </g>
            </g>
          </g>
        </g>
      </g>
      <g
         transform="translate(468,15)"
         id="906555d45a364583932071accd034118"
         p:def="Evolus.Common:SVGImage"
         p:type="Shape">
        <p:metadata>
          <p:property
             name="box">34,33</p:property>
          <p:property
             name="originalDim">100,100</p:property>
          <p:property
             name="svgXML">&lt;g xmlns=&quot;http://www.w3.org/2000/svg&quot;&gt;
&lt;path d=&quot;M87.001,77.233L61.35,51.582c-0.24-0.241-0.497-0.455-0.761-0.655l4.543-4.784c0.232-0.234,0.452-0.48,0.654-0.733  c6.031,2.275,13.108,0.996,17.956-3.851c3.536-3.537,5.319-8.428,4.888-13.42c-0.047-0.565-0.421-1.053-0.953-1.246  c-0.534-0.195-1.131-0.062-1.533,0.338l-8.22,8.22L69.6,33.353l-2.36-8.586l8.219-8.219c0.403-0.402,0.535-1,0.341-1.533  c-0.194-0.534-0.682-0.905-1.248-0.955c-4.992-0.43-9.883,1.352-13.42,4.889c-4.844,4.844-6.126,11.917-3.854,17.946  c-0.247,0.209-0.493,0.431-0.734,0.669l-6.687,6.422L37.578,31.708c-0.153-0.154-0.317-0.289-0.485-0.416  c0.144-0.253,0.284-0.513,0.415-0.783c2.593,0.499,7.334-4.551,11.36-8.576l-11.73-11.731c-5.245,5.246-9.075,8.767-8.578,11.36  c-1.199,0.586-2.268,1.302-3.028,2.063l-1.652,1.652c-1.073,1.074-1.72,2.41-1.951,3.802c-0.16,0.183-0.323,0.376-0.485,0.582  l-0.616,0.774c-0.017,0.019-0.07,0.095-0.085,0.115l-0.558,0.781c-0.349,0.466-0.654,0.972-0.949,1.46  c-0.109,0.181-0.22,0.363-0.333,0.544c-0.018,0.031-0.036,0.062-0.052,0.093l-0.248,0.467c-0.3,0.562-0.611,1.144-0.877,1.784  l-0.043,0.102c-0.314,0.746-0.639,1.518-0.866,2.336l-0.11,0.354c-0.09,0.291-0.181,0.582-0.265,0.929l-0.228,1.129  c-0.17,0.706-0.227,1.402-0.277,2.019l-0.033,0.405c-0.084,0.64-0.06,1.243-0.037,1.775c0.008,0.178,0.015,0.353,0.02,0.589  c0.006,0.098,0.007,0.194,0.01,0.288c0.006,0.238,0.012,0.508,0.058,0.792l0.143,0.916c0.031,0.177,0.057,0.349,0.081,0.514  c0.055,0.372,0.111,0.757,0.222,1.122l0.6,2.082c0.185,0.633,0.786,1.052,1.444,1.006c0.348-0.024,0.661-0.175,0.894-0.408  c0.208-0.208,0.352-0.482,0.396-0.79l0.311-2.117c0.023-0.168,0.095-0.414,0.17-0.674c0.053-0.181,0.105-0.365,0.145-0.522  l0.221-0.79c0.027-0.107,0.079-0.211,0.125-0.318c0.044-0.099,0.088-0.201,0.127-0.302c0.074-0.168,0.144-0.336,0.213-0.508  c0.136-0.338,0.265-0.656,0.462-0.968c0.085-0.144,0.165-0.287,0.246-0.433c0.205-0.367,0.4-0.714,0.631-1.001  c0.015-0.017,0.028-0.036,0.043-0.056l0.522-0.72c0.107-0.135,0.227-0.263,0.344-0.392c0.083-0.091,0.166-0.182,0.271-0.302  c0.308-0.371,0.67-0.694,1.019-1.012l0.187-0.168c0.259-0.24,0.558-0.466,0.873-0.705c0.129-0.096,0.255-0.192,0.379-0.286  c0.159-0.103,0.313-0.206,0.465-0.308c0.284-0.192,0.53-0.358,0.814-0.506l0.619-0.352l0.626-0.307  c0.218-0.113,0.433-0.2,0.631-0.28c0.118-0.049,0.234-0.096,0.342-0.143c0.11-0.038,0.216-0.079,0.316-0.116  c0.134-0.049,0.25-0.096,0.407-0.137l0.169-0.038c0.184,0.298,0.4,0.581,0.659,0.84l12.146,12.146L17.289,75.268  c-0.01,0.011-0.02,0.021-0.029,0.03c-3.227,3.227-3.752,7.952-0.525,11.179c3.227,3.227,7.652,2.4,10.878-0.826  c0.014-0.013,0.026-0.026,0.039-0.041l22.874-24.086c0.134,0.159,0.267,0.318,0.416,0.467l25.649,25.65  c2.874,2.875,7.536,2.875,10.41,0C89.874,84.769,89.874,80.106,87.001,77.233z M24.265,82.991c-1.188,1.19-3.115,1.19-4.304,0  c-1.188-1.188-1.188-3.114,0-4.303c1.188-1.187,3.115-1.188,4.304,0C25.452,79.877,25.452,81.803,24.265,82.991z&quot;/&gt;
&lt;/g&gt;</p:property>
        </p:metadata>
        <g
           transform="scale(0.34,0.33)"
           id="2313da7883584779bbdd072d9d047869"
           p:name="container">
          <g
             id="g3000">
            <path
               id="path3002"
               d="M 87.001,77.233 61.35,51.582 c -0.24,-0.241 -0.497,-0.455 -0.761,-0.655 l 4.543,-4.784 c 0.232,-0.234 0.452,-0.48 0.654,-0.733 6.031,2.275 13.108,0.996 17.956,-3.851 3.536,-3.537 5.319,-8.428 4.888,-13.42 -0.047,-0.565 -0.421,-1.053 -0.953,-1.246 -0.534,-0.195 -1.131,-0.062 -1.533,0.338 l -8.22,8.22 -8.324,-2.098 -2.36,-8.586 8.219,-8.219 c 0.403,-0.402 0.535,-1 0.341,-1.533 -0.194,-0.534 -0.682,-0.905 -1.248,-0.955 -4.992,-0.43 -9.883,1.352 -13.42,4.889 -4.844,4.844 -6.126,11.917 -3.854,17.946 -0.247,0.209 -0.493,0.431 -0.734,0.669 L 49.857,43.986 37.578,31.708 c -0.153,-0.154 -0.317,-0.289 -0.485,-0.416 0.144,-0.253 0.284,-0.513 0.415,-0.783 2.593,0.499 7.334,-4.551 11.36,-8.576 L 37.138,10.202 c -5.245,5.246 -9.075,8.767 -8.578,11.36 -1.199,0.586 -2.268,1.302 -3.028,2.063 l -1.652,1.652 c -1.073,1.074 -1.72,2.41 -1.951,3.802 -0.16,0.183 -0.323,0.376 -0.485,0.582 l -0.616,0.774 c -0.017,0.019 -0.07,0.095 -0.085,0.115 l -0.558,0.781 c -0.349,0.466 -0.654,0.972 -0.949,1.46 -0.109,0.181 -0.22,0.363 -0.333,0.544 -0.018,0.031 -0.036,0.062 -0.052,0.093 l -0.248,0.467 c -0.3,0.562 -0.611,1.144 -0.877,1.784 l -0.043,0.102 c -0.314,0.746 -0.639,1.518 -0.866,2.336 l -0.11,0.354 c -0.09,0.291 -0.181,0.582 -0.265,0.929 l -0.228,1.129 c -0.17,0.706 -0.227,1.402 -0.277,2.019 l -0.033,0.405 c -0.084,0.64 -0.06,1.243 -0.037,1.775 0.008,0.178 0.015,0.353 0.02,0.589 0.006,0.098 0.007,0.194 0.01,0.288 0.006,0.238 0.012,0.508 0.058,0.792 l 0.143,0.916 c 0.031,0.177 0.057,0.349 0.081,0.514 0.055,0.372 0.111,0.757 0.222,1.122 l 0.6,2.082 c 0.185,0.633 0.786,1.052 1.444,1.006 0.348,-0.024 0.661,-0.175 0.894,-0.408 0.208,-0.208 0.352,-0.482 0.396,-0.79 l 0.311,-2.117 c 0.023,-0.168 0.095,-0.414 0.17,-0.674 0.053,-0.181 0.105,-0.365 0.145,-0.522 l 0.221,-0.79 c 0.027,-0.107 0.079,-0.211 0.125,-0.318 0.044,-0.099 0.088,-0.201 0.127,-0.302 0.074,-0.168 0.144,-0.336 0.213,-0.508 0.136,-0.338 0.265,-0.656 0.462,-0.968 0.085,-0.144 0.165,-0.287 0.246,-0.433 0.205,-0.367 0.4,-0.714 0.631,-1.001 0.015,-0.017 0.028,-0.036 0.043,-0.056 l 0.522,-0.72 c 0.107,-0.135 0.227,-0.263 0.344,-0.392 0.083,-0.091 0.166,-0.182 0.271,-0.302 0.308,-0.371 0.67,-0.694 1.019,-1.012 l 0.187,-0.168 c 0.259,-0.24 0.558,-0.466 0.873,-0.705 0.129,-0.096 0.255,-0.192 0.379,-0.286 0.159,-0.103 0.313,-0.206 0.465,-0.308 0.284,-0.192 0.53,-0.358 0.814,-0.506 l 0.619,-0.352 0.626,-0.307 c 0.218,-0.113 0.433,-0.2 0.631,-0.28 0.118,-0.049 0.234,-0.096 0.342,-0.143 0.11,-0.038 0.216,-0.079 0.316,-0.116 0.134,-0.049 0.25,-0.096 0.407,-0.137 l 0.169,-0.038 c 0.184,0.298 0.4,0.581 0.659,0.84 L 43.218,50.364 17.289,75.268 c -0.01,0.011 -0.02,0.021 -0.029,0.03 -3.227,3.227 -3.752,7.952 -0.525,11.179 3.227,3.227 7.652,2.4 10.878,-0.826 0.014,-0.013 0.026,-0.026 0.039,-0.041 L 50.526,61.524 c 0.134,0.159 0.267,0.318 0.416,0.467 l 25.649,25.65 c 2.874,2.875 7.536,2.875 10.41,0 2.873,-2.872 2.873,-7.535 0,-10.408 z m -62.736,5.758 c -1.188,1.19 -3.115,1.19 -4.304,0 -1.188,-1.188 -1.188,-3.114 0,-4.303 1.188,-1.187 3.115,-1.188 4.304,0 1.187,1.189 1.187,3.115 0,4.303 z"
               inkscape:connector-curvature="0" />
          </g>
        </g>
      </g>
    </g>
  </g>
</svg>
